<svg id="svg" version="1.1" width="661" height="498" xmlns="http://www.w3.org/2000/svg" xmlns:xlink="http://www.w3.org/1999/xlink" ><g id="svgg" ><path id="path0" d="M197.428 6.452 C 196.611 6.782,196.399 16.390,197.168 18.230 C 198.263 20.848,200.495 18.353,200.088 14.966 C 199.879 13.225,199.706 10.507,199.703 8.926 C 199.698 6.091,199.326 5.687,197.428 6.452 M204.318 8.859 C 203.524 14.653,203.825 18.054,205.196 18.787 C 206.857 19.676,206.767 19.956,207.093 12.888 C 207.322 7.908,207.210 6.650,206.514 6.383 C 204.933 5.776,204.706 6.032,204.318 8.859 M189.318 9.460 L 185.293 10.986 185.617 17.142 C 186.008 24.575,185.531 24.032,190.132 22.277 L 193.949 20.821 194.120 14.344 C 194.215 10.781,194.079 7.882,193.818 7.900 C 193.557 7.919,191.532 8.621,189.318 9.460 M209.687 11.605 C 208.840 19.634,209.149 20.497,213.491 22.230 C 218.079 24.061,217.609 24.588,218.043 17.129 L 218.402 10.959 215.253 9.768 C 213.520 9.112,211.650 8.397,211.097 8.177 C 210.245 7.839,210.029 8.364,209.687 11.605 M174.281 15.098 L 169.743 16.812 169.788 19.450 C 169.871 24.222,170.711 29.047,171.460 29.047 C 171.858 29.047,174.221 28.260,176.712 27.297 L 181.241 25.548 181.075 21.397 C 180.716 12.377,180.938 12.584,174.281 15.098 M222.465 19.096 C 221.974 26.076,221.662 25.522,227.243 27.558 C 232.618 29.518,232.157 29.774,232.998 24.357 C 234.082 17.370,233.954 17.070,229.047 15.088 C 222.705 12.526,222.937 12.384,222.465 19.096 M158.443 21.086 C 156.222 21.970,154.246 22.854,154.051 23.051 C 153.717 23.388,155.726 34.306,156.206 34.763 C 156.406 34.953,165.249 31.618,165.682 31.190 C 165.856 31.018,164.890 24.221,164.238 21.029 C 163.830 19.033,163.597 19.035,158.443 21.086 M238.746 20.726 C 238.341 22.515,237.227 29.761,237.221 30.647 C 237.217 31.225,239.010 32.088,246.027 34.884 C 246.840 35.208,249.071 23.707,248.333 23.001 C 247.747 22.440,240.314 19.365,239.544 19.365 C 239.275 19.365,238.916 19.977,238.746 20.726 M146.445 25.827 C 145.280 26.331,144.225 26.841,144.101 26.961 C 143.889 27.165,146.424 38.192,146.783 38.628 C 147.395 39.372,152.552 36.215,152.281 35.264 C 152.113 34.673,151.520 32.080,150.965 29.501 C 149.889 24.508,149.751 24.395,146.445 25.827 M252.345 25.295 C 252.345 25.562,251.823 28.168,251.185 31.087 L 250.025 36.395 252.784 37.577 C 254.301 38.228,255.599 38.685,255.668 38.593 C 255.881 38.312,258.396 27.917,258.396 27.319 C 258.396 27.010,257.302 26.320,255.964 25.784 C 253.253 24.700,252.345 24.577,252.345 25.295 M198.638 26.473 C 197.248 27.398,196.439 39.334,197.766 39.334 C 199.860 39.334,200.348 37.786,200.174 31.686 L 200.000 25.568 198.638 26.473 M203.933 31.735 C 203.933 38.051,204.387 39.334,206.617 39.334 C 207.960 39.334,206.874 27.315,205.446 26.379 L 203.933 25.388 203.933 31.735 M190.159 30.051 L 186.369 31.602 186.763 37.435 C 187.239 44.494,186.775 43.987,191.188 42.276 L 194.856 40.853 194.856 34.648 C 194.856 31.234,194.652 28.455,194.402 28.471 C 194.153 28.487,192.243 29.198,190.159 30.051 M209.098 34.125 C 208.588 40.927,208.459 40.636,212.719 42.365 C 216.785 44.015,216.393 44.480,216.867 37.451 L 217.259 31.634 214.076 30.287 C 212.325 29.546,210.586 28.812,210.211 28.655 C 209.749 28.462,209.390 30.228,209.098 34.125 M176.886 35.015 C 174.491 35.912,172.371 36.807,172.175 37.003 C 171.709 37.469,172.498 46.879,173.083 47.826 C 173.532 48.551,181.075 46.547,182.375 45.357 C 182.968 44.813,182.260 33.255,181.638 33.333 C 181.419 33.360,179.281 34.117,176.886 35.015 M221.179 36.460 C 220.963 38.207,220.876 40.998,220.984 42.663 L 221.180 45.688 225.301 47.134 C 230.361 48.910,230.448 48.829,230.678 42.145 L 230.862 36.786 226.334 35.035 C 223.843 34.071,221.752 33.283,221.687 33.283 C 221.623 33.283,221.394 34.713,221.179 36.460 M161.876 40.459 C 159.546 41.369,157.645 42.373,157.651 42.691 C 157.684 44.392,159.351 53.253,159.638 53.253 C 162.170 53.253,168.230 50.412,168.230 49.225 C 168.230 46.814,166.886 38.728,166.492 38.767 C 166.283 38.788,164.206 39.550,161.876 40.459 M235.779 40.623 C 235.565 41.690,235.227 44.356,235.026 46.547 L 234.662 50.530 238.696 51.958 C 240.915 52.743,242.847 53.270,242.988 53.129 C 243.261 52.856,245.083 43.718,245.083 42.623 C 245.083 42.269,243.256 41.316,241.023 40.505 C 238.791 39.695,236.784 38.953,236.565 38.857 C 236.346 38.761,235.992 39.555,235.779 40.623 M151.135 44.619 C 149.853 45.145,148.865 45.969,148.865 46.513 C 148.865 48.562,150.915 56.884,151.419 56.884 C 151.874 56.884,155.470 55.218,156.008 54.757 C 156.322 54.489,154.096 43.567,153.740 43.629 C 153.555 43.661,152.383 44.107,151.135 44.619 M248.465 44.088 C 248.127 44.636,246.236 54.615,246.439 54.784 C 246.984 55.236,250.563 56.884,251.002 56.884 C 251.505 56.884,253.555 48.564,253.555 46.523 C 253.555 45.538,248.935 43.328,248.465 44.088 M198.638 45.988 C 197.235 47.127,196.461 58.699,197.788 58.699 C 199.647 58.699,200.346 56.346,200.174 50.659 L 200.000 44.883 198.638 45.988 M203.933 50.908 C 203.933 57.201,204.364 58.699,206.172 58.699 C 207.843 58.699,207.211 47.649,205.446 45.991 L 203.933 44.570 203.933 50.908 M190.772 49.829 L 187.595 51.126 187.595 57.031 C 187.595 60.278,187.831 62.935,188.119 62.935 C 188.407 62.935,190.041 62.354,191.750 61.644 L 194.856 60.353 194.856 54.382 C 194.856 51.098,194.652 48.439,194.402 48.472 C 194.153 48.505,192.519 49.116,190.772 49.829 M208.775 54.332 L 208.775 60.353 211.881 61.644 C 213.590 62.354,215.223 62.935,215.512 62.935 C 215.800 62.935,216.036 60.266,216.036 57.003 L 216.036 51.071 212.876 49.893 C 211.138 49.244,209.504 48.623,209.245 48.512 C 208.986 48.401,208.775 51.020,208.775 54.332 M178.304 54.395 L 173.551 55.960 173.916 58.624 C 174.117 60.090,174.286 62.272,174.291 63.473 C 174.306 67.076,174.683 67.240,179.613 65.788 L 184.018 64.491 183.609 58.721 C 183.121 51.843,183.965 52.531,178.304 54.395 M220.033 54.601 C 219.832 55.607,219.667 58.246,219.667 60.467 L 219.667 64.504 223.733 65.826 C 228.633 67.419,228.499 67.541,229.000 61.032 L 229.402 55.800 224.900 54.287 L 220.398 52.773 220.033 54.601 M164.297 58.954 C 162.107 59.799,160.708 60.688,160.772 61.192 C 161.346 65.686,162.366 70.800,162.687 70.793 C 162.907 70.788,164.720 70.267,166.717 69.636 L 170.348 68.488 170.222 66.165 C 169.935 60.845,169.321 57.490,168.640 57.520 C 168.248 57.537,166.293 58.182,164.297 58.954 M233.310 59.405 C 233.118 60.514,232.897 63.038,232.819 65.014 L 232.678 68.606 236.223 69.699 C 240.545 71.032,240.585 71.010,241.056 67.005 C 241.264 65.230,241.598 62.965,241.797 61.970 C 242.148 60.214,242.057 60.130,238.628 59.050 C 236.687 58.438,234.775 57.814,234.379 57.663 C 233.947 57.497,233.520 58.193,233.310 59.405 M154.463 62.628 C 152.182 63.618,152.222 63.368,153.420 69.064 C 154.536 74.367,154.297 74.103,156.969 72.986 C 159.410 71.967,159.449 71.773,158.368 66.010 C 157.554 61.670,157.260 61.414,154.463 62.628 M244.855 62.784 C 244.502 63.993,243.268 70.776,243.268 71.510 C 243.268 72.012,247.540 73.993,247.883 73.650 C 248.114 73.419,249.924 64.929,249.924 64.075 C 249.924 63.580,246.389 61.725,245.446 61.725 C 245.291 61.725,245.025 62.201,244.855 62.784 M198.638 65.017 C 197.415 66.290,197.277 67.037,197.277 72.386 L 197.277 78.339 198.813 76.802 C 200.275 75.341,200.341 74.984,200.175 69.433 L 200.000 63.599 198.638 65.017 M203.933 69.719 C 203.933 75.292,204.080 76.193,205.144 77.156 C 206.346 78.244,206.354 78.213,206.354 72.353 C 206.354 67.370,206.166 66.215,205.144 64.916 L 203.933 63.377 203.933 69.719 M190.715 69.150 C 187.637 70.329,187.499 70.475,187.841 72.184 C 188.038 73.171,188.200 75.698,188.200 77.800 L 188.200 81.621 191.377 80.542 L 194.554 79.464 194.727 73.620 C 194.822 70.406,194.686 67.807,194.424 67.844 C 194.163 67.881,192.494 68.469,190.715 69.150 M208.775 73.556 L 208.775 79.336 210.741 80.140 C 215.815 82.215,215.497 82.507,215.302 75.931 L 215.129 70.072 212.103 68.925 C 210.439 68.294,209.009 67.777,208.926 67.777 C 208.843 67.776,208.775 70.377,208.775 73.556 M179.274 72.695 L 175.492 73.871 175.552 77.934 C 175.652 84.648,175.657 84.654,180.484 83.615 L 184.569 82.736 184.562 79.341 C 184.554 75.417,183.975 71.381,183.431 71.464 C 183.225 71.495,181.354 72.049,179.274 72.695 M219.054 75.730 C 219.049 78.178,218.892 80.752,218.705 81.449 C 218.399 82.590,218.777 82.805,222.496 83.603 L 226.626 84.489 227.045 82.335 C 227.276 81.151,227.480 78.759,227.499 77.021 L 227.534 73.861 224.054 72.855 C 222.141 72.301,220.234 71.720,219.818 71.563 C 219.256 71.351,219.060 72.422,219.054 75.730 M166.812 76.138 L 163.277 77.121 163.672 81.072 C 164.259 86.934,164.432 87.311,166.320 86.856 C 172.436 85.382,172.443 85.378,172.167 83.643 C 172.023 82.738,171.740 80.431,171.537 78.517 C 171.334 76.604,170.984 75.064,170.758 75.096 C 170.533 75.128,168.757 75.597,166.812 76.138 M231.504 76.365 C 231.336 77.133,231.123 79.507,231.030 81.640 C 230.844 85.938,230.650 85.742,236.104 86.761 L 238.320 87.176 238.733 82.771 C 238.960 80.348,239.188 78.106,239.240 77.788 C 239.292 77.469,238.139 76.863,236.678 76.440 C 235.217 76.017,233.524 75.513,232.916 75.320 C 232.106 75.063,231.729 75.342,231.504 76.365 M157.746 79.117 C 155.869 79.869,155.491 80.286,155.746 81.323 C 155.918 82.027,156.247 84.038,156.476 85.793 C 156.968 89.565,157.167 89.749,159.723 88.786 L 161.681 88.048 161.265 84.157 C 160.623 78.161,160.517 78.008,157.746 79.117 M241.512 81.912 C 240.523 87.589,240.597 87.991,242.789 88.818 C 243.856 89.222,244.907 89.349,245.123 89.102 C 245.533 88.634,246.974 80.357,246.694 80.078 C 246.606 79.990,245.553 79.508,244.355 79.007 L 242.176 78.097 241.512 81.912 M198.033 83.898 C 196.600 85.445,195.900 96.218,197.233 96.218 C 199.136 96.218,200.303 92.967,200.303 87.664 C 200.303 81.915,200.132 81.632,198.033 83.898 M203.328 88.048 C 203.328 93.806,204.222 96.218,206.354 96.218 C 207.861 96.218,207.049 85.471,205.419 83.840 C 203.288 81.709,203.328 81.628,203.328 88.048 M190.772 87.577 L 188.200 88.466 188.200 93.922 L 188.200 99.378 190.458 98.955 C 194.746 98.150,194.856 97.974,194.856 91.961 C 194.856 85.980,194.987 86.120,190.772 87.577 M208.775 92.148 L 208.775 97.890 211.571 98.594 C 215.002 99.458,214.659 99.920,215.159 93.757 L 215.578 88.587 213.021 87.821 C 211.615 87.399,210.084 86.909,209.619 86.730 C 208.933 86.467,208.775 87.483,208.775 92.148 M179.576 90.303 L 176.702 90.902 176.702 96.038 L 176.702 101.173 179.879 100.769 C 184.833 100.141,185.332 99.910,184.935 98.429 C 184.743 97.712,184.582 95.424,184.577 93.343 C 184.568 89.114,184.751 89.225,179.576 90.303 M218.585 94.850 L 218.759 100.139 221.785 100.587 C 226.236 101.246,226.324 101.152,226.324 95.715 L 226.324 90.939 222.895 90.250 C 221.008 89.871,219.228 89.561,218.938 89.561 C 218.647 89.561,218.488 91.941,218.585 94.850 M167.322 92.524 C 165.455 92.935,165.040 95.881,166.141 100.912 C 166.394 102.068,172.198 102.479,173.454 101.429 C 173.498 101.392,173.394 99.251,173.223 96.672 L 172.912 91.982 171.025 92.053 C 169.987 92.093,168.321 92.305,167.322 92.524 M229.637 96.477 C 229.127 101.914,228.803 101.401,233.045 101.878 L 236.438 102.260 236.841 97.922 C 237.312 92.856,237.269 92.788,233.190 92.251 L 230.071 91.841 229.637 96.477 M159.584 94.508 C 158.440 94.926,157.988 95.445,158.179 96.124 C 158.334 96.675,158.645 98.580,158.871 100.358 L 159.282 103.590 161.486 103.178 C 162.699 102.952,163.746 102.714,163.813 102.649 C 163.879 102.584,163.642 100.566,163.286 98.164 C 162.612 93.623,162.450 93.463,159.584 94.508 M239.328 97.277 C 239.111 99.191,238.812 101.198,238.664 101.737 C 238.425 102.608,240.433 103.480,242.681 103.480 C 242.941 103.480,243.336 102.050,243.557 100.303 C 243.779 98.555,244.081 96.695,244.228 96.168 C 244.395 95.571,243.911 94.944,242.945 94.504 C 240.168 93.238,239.751 93.558,239.328 97.277 M198.033 102.052 C 196.632 103.565,195.886 114.372,197.183 114.372 C 198.828 114.372,199.593 112.021,199.792 106.354 C 200.019 99.919,200.016 99.911,198.033 102.052 M203.328 106.203 C 203.328 111.960,204.222 114.372,206.354 114.372 C 207.787 114.372,207.019 103.893,205.456 102.118 C 203.373 99.751,203.328 99.836,203.328 106.203 M190.772 105.454 L 188.200 106.072 188.200 111.336 L 188.200 116.601 190.929 116.187 C 194.435 115.655,194.239 115.984,194.668 109.910 C 195.076 104.118,195.293 104.366,190.772 105.454 M208.775 110.125 C 208.775 116.108,208.450 115.646,213.162 116.370 L 214.826 116.625 214.826 111.334 L 214.826 106.044 212.137 105.367 C 210.659 104.995,209.297 104.690,209.112 104.690 C 208.926 104.690,208.775 107.136,208.775 110.125 M179.274 106.943 L 177.307 107.187 177.307 111.990 L 177.307 116.793 181.241 116.793 L 185.174 116.793 185.174 111.649 L 185.174 106.505 183.207 106.602 C 182.126 106.655,180.356 106.809,179.274 106.943 M217.852 111.571 L 217.852 116.793 221.431 116.793 L 225.010 116.793 225.438 112.227 C 225.946 106.806,226.294 107.304,221.630 106.776 L 217.852 106.349 217.852 111.571 M168.079 107.528 C 166.937 107.826,166.729 109.809,167.408 113.918 L 167.783 116.188 171.032 116.188 L 174.281 116.188 174.281 112.606 C 174.281 107.098,173.179 106.195,168.079 107.528 M228.738 109.380 C 228.734 110.628,228.562 112.670,228.356 113.918 L 227.981 116.188 231.318 116.188 C 235.100 116.188,235.377 115.811,235.393 110.661 C 235.402 107.588,234.804 107.136,230.711 107.119 C 228.842 107.111,228.744 107.223,228.738 109.380 M161.422 108.133 C 158.852 108.804,160.450 116.188,163.165 116.188 C 165.440 116.188,165.546 115.825,164.819 110.523 C 164.428 107.664,164.099 107.433,161.422 108.133 M237.816 108.775 C 237.813 109.357,237.639 111.263,237.429 113.011 L 237.048 116.188 239.171 116.188 C 242.204 116.188,243.583 108.871,240.696 108.097 C 238.475 107.502,237.822 107.655,237.816 108.775 M197.693 120.305 C 196.183 121.881,196.067 122.379,196.067 127.265 C 196.067 132.856,196.285 133.238,198.373 131.293 C 199.532 130.213,200.570 118.608,199.508 118.608 C 199.404 118.608,198.587 119.372,197.693 120.305 M203.328 124.217 C 203.328 130.033,203.556 130.662,206.203 132.168 C 208.124 133.261,207.073 121.474,205.110 119.924 L 203.328 118.516 203.328 124.217 M161.580 121.483 C 161.604 125.286,162.345 127.021,164.111 127.409 C 166.493 127.932,166.630 127.687,166.142 123.780 C 165.707 120.300,161.559 118.211,161.580 121.483 M236.394 122.693 C 235.622 127.365,235.788 127.880,237.929 127.452 C 240.291 126.980,240.025 127.373,240.533 123.601 L 240.961 120.424 238.865 120.424 C 236.914 120.424,236.744 120.580,236.394 122.693 M141.430 121.785 C 140.787 123.392,103.469 211.776,101.379 216.641 C 97.076 226.660,95.303 228.679,89.503 230.163 C 82.206 232.031,85.079 232.375,107.968 232.375 C 128.981 232.375,135.739 231.809,126.021 230.864 C 114.304 229.723,114.243 229.257,123.031 208.060 L 128.631 194.554 149.848 194.395 L 171.064 194.236 174.746 203.472 C 184.060 226.835,182.481 229.916,160.079 232.104 C 101.719 237.803,49.261 255.207,11.952 281.250 C 5.272 285.912,3.714 287.610,7.716 285.865 C 115.515 238.852,275.819 236.890,383.661 281.265 C 388.487 283.250,393.457 285.320,394.705 285.865 C 398.707 287.610,397.148 285.912,390.469 281.250 C 352.245 254.569,298.670 237.100,238.729 231.774 C 220.481 230.153,218.777 225.790,227.674 203.472 L 231.357 194.236 252.573 194.395 L 273.789 194.554 279.389 208.060 C 288.177 229.257,288.116 229.723,276.399 230.864 C 266.682 231.809,273.440 232.375,294.453 232.375 C 317.341 232.375,320.215 232.031,312.917 230.163 C 307.118 228.679,305.345 226.660,301.041 216.641 C 298.951 211.776,261.633 123.392,260.990 121.785 C 260.824 121.369,259.832 121.030,258.785 121.031 L 256.884 121.032 237.894 166.568 C 210.950 231.179,211.675 229.906,201.815 229.938 C 190.674 229.974,191.611 231.566,164.517 166.568 L 145.537 121.032 143.635 121.031 C 142.589 121.030,141.597 121.369,141.430 121.785 M168.239 124.206 C 168.251 128.156,170.321 130.106,174.503 130.106 C 174.714 130.106,174.887 128.234,174.887 125.946 L 174.887 121.785 172.995 121.407 C 168.557 120.519,168.229 120.712,168.239 124.206 M229.272 121.432 C 228.264 121.700,227.553 124.455,227.541 128.139 C 227.533 130.378,227.500 130.368,231.165 129.276 L 233.888 128.464 234.068 124.746 L 234.248 121.029 232.253 121.099 C 231.155 121.138,229.814 121.287,229.272 121.432 M177.912 126.727 L 177.912 131.216 180.968 131.871 C 182.648 132.232,184.282 132.526,184.599 132.526 C 184.915 132.526,185.174 130.385,185.174 127.768 L 185.174 123.009 182.366 122.624 C 177.692 121.983,177.912 121.780,177.912 126.727 M190.469 122.680 C 188.372 122.899,188.199 123.064,188.194 124.847 C 188.192 125.909,188.017 128.207,187.808 129.955 L 187.426 133.132 190.839 133.132 L 194.251 133.132 194.251 127.685 C 194.251 123.677,194.051 122.266,193.495 122.341 C 193.079 122.397,191.717 122.549,190.469 122.680 M208.775 127.615 L 208.775 133.132 211.800 133.132 L 214.826 133.132 214.826 127.988 L 214.826 122.844 213.162 122.836 C 212.247 122.831,210.885 122.663,210.136 122.463 C 208.797 122.104,208.775 122.189,208.775 127.615 M219.818 122.677 L 217.852 122.921 217.852 127.724 C 217.852 133.000,217.805 132.951,221.785 131.851 C 224.865 130.999,225.093 130.599,225.104 126.021 C 225.115 121.815,225.384 121.986,219.818 122.677 M162.784 133.419 C 162.784 135.948,164.519 137.973,166.687 137.973 C 168.016 137.973,166.896 131.844,165.467 131.301 C 163.012 130.368,162.784 130.548,162.784 133.419 M236.762 131.335 C 235.500 131.843,234.549 137.973,235.734 137.973 C 237.901 137.973,239.637 135.948,239.637 133.419 C 239.637 130.576,239.285 130.321,236.762 131.335 M168.842 133.823 C 168.862 138.195,169.558 139.742,172.197 141.289 C 175.620 143.295,175.492 143.386,175.492 138.946 L 175.492 135.078 172.920 134.039 C 171.505 133.467,170.008 132.863,169.592 132.698 C 169.114 132.508,168.838 132.924,168.842 133.823 M230.194 133.772 C 227.760 134.893,227.702 134.993,227.318 138.662 C 226.835 143.285,226.870 143.318,230.150 141.396 C 232.897 139.786,233.585 138.357,233.585 134.266 C 233.585 132.258,233.506 132.247,230.194 133.772 M177.912 140.383 L 177.912 144.609 180.998 146.173 C 184.707 148.052,184.393 148.330,184.656 142.932 L 184.871 138.511 181.543 137.354 C 179.713 136.717,178.147 136.188,178.064 136.177 C 177.980 136.166,177.912 138.059,177.912 140.383 M221.180 137.363 L 218.154 138.376 217.978 143.016 C 217.780 148.192,217.877 148.284,221.536 146.417 C 224.466 144.923,224.620 144.575,224.388 139.972 L 224.206 136.350 221.180 137.363 M197.423 138.468 C 195.205 140.293,194.261 150.076,196.302 150.076 C 198.948 150.076,199.757 148.178,199.572 142.401 L 199.395 136.845 197.423 138.468 M203.328 142.433 C 203.328 148.376,204.099 150.076,206.791 150.076 C 208.939 150.076,207.423 139.878,204.992 137.977 L 203.328 136.675 203.328 142.433 M163.432 141.452 C 163.467 143.270,163.889 144.065,165.550 145.445 L 167.625 147.169 167.625 144.214 C 167.625 141.594,167.426 141.142,165.867 140.221 C 163.479 138.810,163.383 138.859,163.432 141.452 M187.595 144.186 C 187.595 149.819,187.764 150.046,191.982 150.067 L 193.646 150.076 193.646 144.932 L 193.646 139.788 191.982 139.780 C 191.067 139.775,189.705 139.607,188.956 139.407 C 187.622 139.049,187.595 139.147,187.595 144.186 M211.649 139.624 L 209.380 139.861 209.380 144.968 L 209.380 150.076 211.044 150.067 C 215.253 150.046,215.431 149.811,215.431 144.256 C 215.431 140.547,215.228 139.210,214.675 139.285 C 214.259 139.341,212.897 139.493,211.649 139.624 M236.460 140.247 C 235.014 141.144,234.796 141.665,234.796 144.224 L 234.796 147.169 236.870 145.445 C 238.532 144.065,238.953 143.270,238.988 141.452 C 239.037 138.899,238.809 138.790,236.460 140.247 M159.453 166.429 C 164.604 178.856,168.728 189.114,168.616 189.225 C 168.505 189.336,159.973 189.355,149.655 189.267 L 130.896 189.107 140.315 166.294 C 145.496 153.747,149.814 143.561,149.911 143.658 C 150.008 143.755,154.302 154.002,159.453 166.429 M169.581 146.483 C 169.859 149.383,173.277 154.312,175.009 154.312 C 177.026 154.312,175.375 147.069,172.952 145.287 C 169.553 142.787,169.236 142.900,169.581 146.483 M229.459 145.364 C 227.014 147.244,225.432 154.312,227.457 154.312 C 229.245 154.312,232.980 148.796,232.980 146.156 C 232.980 142.896,232.740 142.842,229.459 145.364 M262.258 166.717 L 271.531 189.107 252.769 189.267 C 242.450 189.355,233.915 189.336,233.804 189.225 C 233.693 189.114,237.819 178.849,242.973 166.414 C 248.128 153.979,252.366 143.650,252.393 143.461 C 252.456 143.006,251.735 141.307,262.258 166.717 M164.019 147.080 C 164.005 148.262,164.334 149.595,164.750 150.043 C 165.356 150.695,165.356 150.773,164.750 150.431 C 163.403 149.670,163.875 152.576,165.945 157.787 C 167.035 160.531,168.106 162.777,168.324 162.779 C 168.923 162.786,168.158 155.331,167.470 154.463 C 167.065 153.951,167.091 153.707,167.551 153.707 C 169.121 153.707,168.231 149.674,166.137 147.302 L 164.044 144.932 164.019 147.080 M236.157 147.352 C 234.185 149.753,233.384 153.707,234.870 153.707 C 235.328 153.707,235.355 153.953,234.953 154.463 C 234.228 155.382,233.423 162.785,234.049 162.779 C 234.293 162.777,235.385 160.531,236.475 157.787 C 238.546 152.576,239.024 149.645,237.670 150.459 C 237.118 150.791,237.129 150.648,237.711 149.929 C 238.150 149.387,238.423 148.048,238.317 146.951 L 238.124 144.958 236.157 147.352 M177.912 153.353 C 177.912 157.212,177.928 157.249,180.721 159.707 C 184.435 162.976,184.569 162.908,184.569 157.730 L 184.569 153.282 181.503 151.376 C 179.817 150.328,178.319 149.470,178.175 149.470 C 178.030 149.470,177.912 151.217,177.912 153.353 M220.737 151.476 L 217.874 153.404 217.863 157.791 C 217.850 162.924,218.133 163.060,221.799 159.681 C 224.463 157.225,224.508 157.119,224.508 153.327 C 224.508 148.898,224.542 148.914,220.737 151.476 M170.069 154.799 C 170.048 157.116,173.975 164.599,175.212 164.599 C 176.973 164.599,175.231 157.776,172.793 155.127 L 170.093 152.194 170.069 154.799 M229.505 155.242 C 227.189 157.950,225.557 164.599,227.209 164.599 C 228.541 164.599,232.424 157.041,232.258 154.771 L 232.073 152.238 229.505 155.242 M186.989 159.633 C 186.989 164.884,187.149 165.179,190.818 166.712 L 193.041 167.641 193.041 162.282 L 193.041 156.924 190.772 156.184 C 189.523 155.776,188.162 155.302,187.746 155.130 C 187.178 154.894,186.989 156.016,186.989 159.633 M197.579 156.102 C 196.581 156.615,195.724 157.035,195.674 157.035 C 195.625 157.035,195.388 159.418,195.149 162.330 L 194.713 167.625 196.526 167.625 C 199.314 167.625,199.765 166.575,199.570 160.550 L 199.395 155.169 197.579 156.102 M203.328 160.980 C 203.328 167.210,203.520 167.625,206.404 167.625 C 207.461 167.625,207.563 167.153,207.545 162.330 L 207.525 157.035 205.427 156.052 L 203.328 155.070 203.328 160.980 M213.011 155.825 C 212.179 156.300,211.021 156.699,210.439 156.711 C 209.307 156.734,208.933 161.610,209.750 165.693 L 210.120 167.543 212.776 166.253 L 215.431 164.963 215.431 159.940 C 215.431 154.602,215.360 154.481,213.011 155.825 M170.253 164.679 C 170.544 169.249,173.049 178.280,174.931 181.543 C 176.039 183.463,175.460 176.729,174.281 173.979 C 172.761 170.433,172.761 169.690,174.281 172.466 L 175.441 174.584 175.466 171.354 C 175.487 168.745,175.075 167.379,173.325 164.249 C 170.231 158.717,169.876 158.767,170.253 164.679 M231.335 160.514 C 227.817 165.077,227.018 167.792,227.020 175.182 C 227.021 179.278,227.238 182.045,227.517 181.536 C 229.428 178.064,231.880 169.204,232.163 164.750 C 232.485 159.690,232.381 159.157,231.335 160.514 M177.913 165.211 C 177.913 168.982,178.027 169.282,180.787 172.769 L 183.661 176.399 184.012 172.163 L 184.364 167.927 181.138 164.606 L 177.912 161.284 177.913 165.211 M221.331 164.441 L 218.457 167.364 218.457 171.730 C 218.457 176.998,218.654 177.040,221.966 172.478 C 224.442 169.067,224.559 168.715,224.387 165.206 L 224.206 161.518 221.331 164.441 M186.762 172.542 C 185.791 177.398,186.248 179.464,188.807 181.775 C 192.206 184.846,192.436 184.664,192.436 178.900 L 192.436 173.837 190.028 172.244 C 187.057 170.277,187.218 170.263,186.762 172.542 M212.254 172.325 L 209.985 173.879 209.985 178.921 C 209.985 184.802,210.426 185.120,213.795 181.669 C 215.960 179.452,216.036 179.226,216.036 175.012 C 216.036 170.081,215.788 169.905,212.254 172.325 M228.513 172.866 C 228.001 173.811,227.572 174.393,227.558 174.159 C 227.517 173.439,228.925 170.630,229.193 170.897 C 229.331 171.035,229.025 171.922,228.513 172.866 M177.912 176.458 C 177.912 180.013,182.200 189.823,183.424 189.067 C 185.168 187.989,183.959 181.574,181.211 177.326 C 177.898 172.205,177.912 172.209,177.912 176.458 M221.331 177.175 C 218.412 181.649,217.464 186.302,218.982 188.696 C 220.103 190.464,224.590 180.132,224.387 176.249 L 224.206 172.769 221.331 177.175 M196.823 174.492 L 194.856 175.137 194.856 180.495 L 194.856 185.852 197.126 185.664 L 199.395 185.477 199.568 179.576 C 199.663 176.331,199.527 173.715,199.265 173.761 C 199.004 173.808,197.905 174.137,196.823 174.492 M202.723 179.360 C 202.723 185.542,202.859 185.779,206.404 185.779 C 208.154 185.779,208.169 185.749,208.169 182.224 C 208.169 175.846,206.891 173.676,203.134 173.676 C 202.908 173.676,202.723 176.234,202.723 179.360 M177.965 186.721 C 177.915 190.203,181.050 199.961,182.805 201.785 C 184.820 203.879,183.173 193.693,180.658 188.502 L 178.019 183.056 177.965 186.721 M221.634 188.679 C 219.174 194.058,217.678 203.789,219.619 201.785 C 221.465 199.879,224.566 190.019,224.390 186.613 L 224.206 183.056 221.634 188.679 M186.162 189.434 C 185.728 194.109,186.155 195.288,189.742 199.313 C 191.682 201.490,191.628 201.579,191.957 195.641 L 192.232 190.677 189.399 187.886 L 186.565 185.095 186.162 189.434 M213.162 187.938 L 210.590 190.666 210.590 195.787 C 210.590 201.841,210.822 201.954,214.119 197.503 C 216.750 193.953,216.967 192.909,216.143 187.764 L 215.734 185.209 213.162 187.938 M194.251 197.954 C 194.251 203.762,194.710 204.539,198.145 204.539 L 199.697 204.539 199.697 198.638 L 199.697 192.738 196.974 192.680 L 194.251 192.622 194.251 197.954 M202.723 198.638 L 202.723 204.539 204.276 204.539 C 207.711 204.539,208.169 203.762,208.169 197.954 L 208.169 192.622 205.446 192.680 L 202.723 192.738 202.723 198.638 M185.806 204.105 C 185.779 208.851,186.709 211.659,189.950 216.617 L 190.923 218.105 191.332 215.407 C 191.557 213.922,191.761 211.553,191.786 210.141 C 191.830 207.579,191.786 207.494,186.723 200.605 C 185.912 199.502,185.831 199.812,185.806 204.105 M214.120 202.808 C 212.899 204.685,211.606 206.403,211.245 206.626 C 210.525 207.071,210.451 211.200,211.089 215.407 L 211.498 218.105 212.471 216.617 C 215.838 211.465,216.695 208.806,216.515 204.056 L 216.339 199.395 214.120 202.808 M194.021 211.892 C 192.579 219.102,194.276 223.903,198.266 223.903 C 199.676 223.903,199.697 223.811,199.697 217.852 C 199.697 211.958,199.662 211.800,198.319 211.800 C 197.561 211.800,196.368 211.399,195.668 210.909 C 194.468 210.068,194.375 210.124,194.021 211.892 M206.692 210.935 C 206.046 211.411,204.889 211.800,204.120 211.800 C 202.754 211.800,202.723 211.934,202.723 217.852 C 202.723 224.626,203.544 225.509,207.180 222.649 C 209.794 220.593,209.312 209.005,206.692 210.935 M98.487 272.699 C 96.998 273.135,97.170 274.009,98.790 274.239 C 100.133 274.430,100.151 274.557,100.151 283.510 C 100.151 292.462,100.133 292.590,98.790 292.780 C 95.466 293.252,97.895 294.100,102.572 294.100 C 105.598 294.100,107.716 293.851,107.716 293.495 C 107.716 293.162,107.181 292.890,106.527 292.890 C 104.884 292.890,104.085 291.106,104.085 287.439 C 104.085 283.126,105.266 283.537,109.763 289.416 L 113.346 294.100 125.962 294.100 C 137.571 294.100,138.578 294.015,138.585 293.041 C 138.588 292.458,138.760 290.961,138.966 289.713 C 139.272 287.865,139.158 287.443,138.355 287.443 C 137.812 287.443,137.368 287.831,137.368 288.305 C 137.368 290.762,134.283 292.953,131.087 292.767 L 127.988 292.587 127.809 288.159 L 127.631 283.732 129.625 283.923 C 131.160 284.071,131.663 284.428,131.812 285.477 C 132.282 288.787,133.737 286.844,133.737 282.905 C 133.737 278.965,132.282 277.022,131.812 280.333 C 131.664 281.376,131.159 281.739,129.652 281.884 L 127.685 282.074 127.685 278.102 L 127.685 274.130 130.408 274.130 C 133.251 274.130,135.552 275.619,135.552 277.458 C 135.552 277.958,135.990 278.366,136.525 278.366 C 137.163 278.366,137.371 278.037,137.130 277.409 C 136.928 276.882,136.762 275.657,136.762 274.686 L 136.762 272.920 128.896 272.920 C 124.054 272.920,121.029 273.153,121.029 273.525 C 121.029 273.858,121.444 274.130,121.951 274.130 C 123.448 274.130,124.054 276.834,124.054 283.510 C 124.054 292.580,122.299 294.907,117.425 292.299 C 116.368 291.733,109.821 283.818,110.237 283.610 C 114.535 281.465,115.680 279.684,114.640 276.764 C 113.400 273.282,104.310 270.994,98.487 272.699 M149.700 273.195 C 146.020 282.784,141.610 292.074,140.499 292.579 C 138.261 293.595,139.029 294.100,142.814 294.100 C 144.831 294.100,146.445 293.831,146.445 293.495 C 146.445 293.162,146.052 292.890,145.573 292.890 C 144.167 292.890,143.920 291.867,144.697 289.271 L 145.426 286.838 149.293 286.838 L 153.161 286.838 154.300 289.383 C 155.496 292.056,155.419 292.890,153.973 292.890 C 153.494 292.890,153.101 293.162,153.101 293.495 C 153.101 293.880,158.043 294.100,166.717 294.100 L 180.333 294.100 180.333 290.772 C 180.333 287.092,179.657 286.507,178.536 289.215 C 177.287 292.229,175.990 292.978,172.381 292.772 L 169.138 292.587 169.138 283.510 L 169.138 274.433 170.802 274.241 C 174.601 273.804,172.071 272.920,167.020 272.920 C 163.792 272.920,161.573 273.166,161.573 273.525 C 161.573 273.858,162.225 274.130,163.021 274.130 C 165.011 274.130,165.204 274.962,165.204 283.510 C 165.204 292.489,165.086 292.890,162.430 292.890 C 159.869 292.890,159.660 292.565,154.901 281.241 C 151.283 272.632,150.425 271.305,149.700 273.195 M212.596 272.924 C 207.170 275.110,209.433 281.763,216.796 285.271 C 220.928 287.240,221.877 288.586,220.754 290.890 C 218.929 294.632,214.192 293.834,212.103 289.432 C 210.340 285.717,209.380 286.083,209.380 290.469 C 209.380 293.293,209.581 294.100,210.287 294.100 C 210.787 294.100,211.195 293.649,211.195 293.098 C 211.195 292.214,211.345 292.232,212.469 293.250 C 214.630 295.205,220.571 294.880,222.443 292.705 C 225.745 288.866,224.030 283.994,218.525 281.574 C 212.579 278.960,210.910 276.348,213.922 274.375 C 216.004 273.010,218.814 274.175,220.138 276.950 C 221.487 279.780,222.088 279.471,222.088 275.946 C 222.088 274.281,221.815 272.920,221.483 272.920 C 221.150 272.920,220.877 273.199,220.877 273.541 C 220.877 273.896,220.115 273.767,219.092 273.238 C 217.128 272.222,214.636 272.102,212.596 272.924 M251.209 281.543 C 248.984 286.972,246.819 291.320,245.952 292.104 C 243.903 293.957,244.036 294.100,247.806 294.100 C 250.989 294.100,252.156 293.411,250.227 292.671 C 249.141 292.254,249.057 290.496,250.021 288.379 C 250.665 286.968,251.041 286.838,254.494 286.838 L 258.265 286.838 259.238 289.271 C 260.497 292.415,260.466 292.890,259.002 292.890 C 258.336 292.890,257.791 293.162,257.791 293.495 C 257.791 293.844,259.708 294.100,262.330 294.100 C 266.556 294.100,268.309 293.407,265.765 292.742 C 264.803 292.491,256.581 274.673,256.581 272.840 C 256.581 270.236,254.385 273.794,251.209 281.543 M189.410 273.454 C 189.410 273.748,189.913 274.121,190.528 274.281 C 193.494 275.057,193.133 292.348,190.142 292.780 C 185.863 293.399,189.972 294.100,197.882 294.100 L 206.959 294.100 206.959 292.663 C 206.959 291.872,207.129 290.374,207.337 289.334 C 207.637 287.837,207.511 287.443,206.732 287.443 C 206.191 287.443,205.749 287.831,205.749 288.305 C 205.749 290.762,202.665 292.953,199.468 292.767 L 196.369 292.587 196.191 288.159 L 196.012 283.732 198.006 283.923 C 199.541 284.071,200.045 284.428,200.193 285.477 C 200.664 288.787,202.118 286.844,202.118 282.905 C 202.118 278.965,200.664 277.022,200.193 280.333 C 200.045 281.376,199.541 281.739,198.033 281.884 L 196.067 282.074 196.067 278.102 L 196.067 274.130 198.790 274.130 C 201.632 274.130,203.933 275.619,203.933 277.458 C 203.933 277.958,204.371 278.366,204.906 278.366 C 205.544 278.366,205.752 278.037,205.511 277.409 C 205.309 276.882,205.144 275.657,205.144 274.686 L 205.144 272.920 197.277 272.920 C 192.950 272.920,189.410 273.160,189.410 273.454 M225.719 275.643 C 225.719 278.903,226.583 279.155,227.798 276.248 C 228.643 274.224,228.818 274.130,231.739 274.130 L 234.796 274.130 234.796 282.339 C 234.796 291.219,234.361 292.890,232.051 292.890 C 231.231 292.890,230.560 293.162,230.560 293.495 C 230.560 293.856,232.879 294.100,236.309 294.100 C 241.596 294.100,244.294 293.227,240.393 292.778 L 238.729 292.587 238.562 283.325 L 238.395 274.062 241.285 274.248 C 243.892 274.415,244.260 274.626,245.041 276.399 C 246.241 279.125,246.899 278.857,246.899 275.643 L 246.899 272.920 236.309 272.920 L 225.719 272.920 225.719 275.643 M264.448 275.643 C 264.448 278.857,265.106 279.125,266.305 276.399 C 267.086 274.626,267.455 274.415,270.061 274.248 L 272.952 274.062 272.784 283.325 L 272.617 292.587 270.953 292.778 C 267.154 293.216,269.684 294.100,274.735 294.100 C 277.963 294.100,280.182 293.853,280.182 293.495 C 280.182 293.162,279.646 292.890,278.993 292.890 C 277.009 292.890,276.551 290.911,276.551 282.339 L 276.551 274.130 279.607 274.130 C 282.529 274.130,282.703 274.224,283.549 276.248 C 284.763 279.155,285.628 278.903,285.628 275.643 L 285.628 272.920 275.038 272.920 L 264.448 272.920 264.448 275.643 M286.838 273.525 C 286.838 273.858,287.354 274.130,287.984 274.130 C 289.646 274.130,289.864 275.216,289.864 283.510 C 289.864 291.803,289.646 292.890,287.984 292.890 C 287.354 292.890,286.838 293.169,286.838 293.511 C 286.838 293.915,289.953 294.074,295.764 293.965 L 304.690 293.797 304.873 290.620 C 305.085 286.936,304.218 286.440,302.934 289.513 C 301.827 292.161,300.211 293.000,296.651 292.771 L 293.797 292.587 293.619 288.200 L 293.442 283.812 295.575 283.812 C 297.345 283.812,297.772 284.070,298.087 285.325 C 298.790 288.124,299.546 286.869,299.546 282.905 C 299.546 279.177,298.641 277.413,298.227 280.333 C 298.071 281.427,297.587 281.731,295.764 281.882 L 293.495 282.070 293.495 278.100 L 293.495 274.130 296.427 274.130 C 299.405 274.130,300.714 274.942,301.553 277.307 C 302.148 278.986,303.177 278.538,303.177 276.600 C 303.177 272.932,303.148 272.920,294.640 272.920 C 289.842 272.920,286.838 273.153,286.838 273.525 M109.635 275.132 C 112.473 277.700,110.358 282.602,106.412 282.602 L 104.085 282.602 104.085 278.366 L 104.085 274.130 106.306 274.130 C 107.528 274.130,109.026 274.581,109.635 275.132 M256.836 283.664 C 257.240 284.937,257.093 285.023,254.504 285.023 C 251.297 285.023,251.332 285.123,253.084 280.895 L 254.429 277.651 255.417 279.978 C 255.960 281.258,256.599 282.916,256.836 283.664 M151.071 281.544 L 152.370 284.720 150.920 284.912 C 150.123 285.017,148.825 285.017,148.036 284.912 L 146.601 284.720 147.814 281.543 C 149.314 277.614,149.465 277.614,151.071 281.544 " stroke="none" fill-rule="evenodd"></path></g></svg>